<?xml version="1.0" standalone="no"?>
<!DOCTYPE svg PUBLIC "-//W3C//DTD SVG 20010904//EN"
 "http://www.w3.org/TR/2001/REC-SVG-20010904/DTD/svg10.dtd">
<svg version="1.0" xmlns="http://www.w3.org/2000/svg"
 width="1024.000000pt" height="1024.000000pt" viewBox="0 0 1024.000000 1024.000000"
 preserveAspectRatio="xMidYMid meet">
<metadata>
Created by potrace 1.14, written by Peter Selinger 2001-2017
</metadata>
<g transform="translate(0.000000,1024.000000) scale(0.100000,-0.100000)"
fill="#000000" stroke="none">
<path d="M10 5115 l0 -5115 1648 0 c1453 0 1649 2 1649 15 0 8 -5 15 -11 15
-6 0 -5 4 3 9 12 8 13 16 4 46 -11 33 -10 35 5 23 14 -11 13 -8 -2 17 -10 17
-15 27 -11 23 4 -4 13 -1 20 5 10 10 9 15 -7 25 -15 11 -16 17 -7 28 6 8 8 14
3 14 -5 0 -2 5 6 10 9 6 10 10 3 10 -8 0 -9 9 -3 30 10 35 3 40 -10 7 -7 -18
-8 -16 -6 14 2 20 6 41 10 48 4 6 1 11 -6 11 -10 0 -9 3 1 9 12 8 13 16 4 46
-11 33 -10 35 5 23 14 -11 13 -8 -2 17 -10 17 -15 27 -11 23 4 -4 13 -1 20 5
10 10 9 15 -7 25 -15 11 -16 17 -7 28 6 8 8 14 3 14 -5 0 -2 5 6 10 9 6 10 10
3 10 -8 0 -9 9 -3 30 10 35 3 40 -10 8 -7 -19 -8 -17 -6 13 2 20 6 41 10 48 4
6 1 11 -6 11 -10 0 -9 3 1 9 12 8 13 16 4 46 -11 33 -10 35 5 23 14 -11 13 -8
-2 17 -10 17 -15 27 -11 23 4 -4 13 -1 20 5 10 10 9 15 -7 25 -15 11 -16 17
-7 28 6 8 8 14 3 14 -5 0 -2 5 6 10 9 6 10 10 3 10 -8 0 -9 9 -3 30 10 35 3
40 -10 7 -7 -18 -8 -16 -6 14 2 20 6 41 10 48 4 6 1 11 -6 11 -10 0 -9 3 1 9
12 8 13 16 4 46 -11 33 -10 35 5 23 14 -11 13 -8 -2 17 -10 17 -15 27 -11 23
4 -4 13 -1 20 5 10 10 9 15 -7 25 -15 11 -16 17 -7 28 6 8 8 14 3 14 -5 0 -2
5 6 10 9 6 10 10 3 10 -8 0 -9 9 -3 30 10 35 3 40 -10 8 -7 -19 -8 -17 -6 13
2 20 6 41 10 48 4 6 1 11 -6 11 -10 0 -9 3 1 9 12 8 13 16 4 46 -11 33 -10 35
5 23 14 -11 13 -8 -2 17 -10 17 -15 27 -11 23 4 -4 13 -1 20 5 10 10 9 15 -7
25 -15 11 -16 17 -7 28 6 8 8 14 3 14 -5 0 -2 5 6 10 11 7 11 10 2 10 -7 0
-11 4 -7 9 3 5 48 -10 100 -35 359 -168 780 -291 1170 -343 250 -33 650 -43
885 -21 805 73 1535 368 2170 874 160 128 478 446 601 601 493 621 768 1279
866 2065 25 205 25 695 0 900 -63 510 -205 972 -429 1400 -196 373 -412 665
-722 976 -338 338 -659 568 -1071 769 -615 300 -1233 429 -1935 404 -523 -19
-1054 -148 -1535 -373 l-94 -44 -10 30 c-10 28 -9 29 6 17 15 -12 15 -10 -1
16 -10 17 -15 27 -11 23 4 -4 13 -1 20 5 10 10 9 15 -7 25 -15 11 -16 17 -7
28 6 8 8 14 3 14 -5 0 -2 5 6 10 9 6 10 10 3 10 -8 0 -9 9 -3 30 10 35 3 40
-10 8 -7 -19 -8 -17 -6 13 2 20 6 41 10 48 4 6 1 11 -6 11 -10 0 -9 3 1 9 12
8 13 16 4 46 -11 33 -10 35 5 23 14 -11 13 -8 -2 17 -10 17 -15 27 -11 23 4
-4 13 -1 20 5 10 10 9 15 -7 25 -15 11 -16 17 -7 28 6 8 8 14 3 14 -5 0 -2 5
6 10 9 6 10 10 3 10 -8 0 -9 9 -3 30 10 35 3 40 -10 8 -7 -19 -8 -17 -6 13 2
20 6 41 10 48 4 6 1 11 -6 11 -10 0 -9 3 1 9 12 8 13 16 4 46 -11 33 -10 35 5
23 14 -11 13 -8 -2 17 -10 17 -15 27 -11 23 4 -4 13 -1 20 5 10 10 9 15 -7 25
-15 11 -16 17 -7 28 6 8 8 14 3 14 -5 0 -2 5 6 10 9 6 10 10 3 10 -8 0 -9 9
-3 30 10 35 3 40 -10 8 -7 -19 -8 -17 -6 13 2 20 6 41 10 48 4 6 1 11 -6 11
-10 0 -9 3 1 9 12 8 13 16 4 46 -11 33 -10 35 5 23 14 -11 13 -8 -2 17 -10 17
-15 27 -11 23 4 -4 13 -1 20 5 10 10 9 15 -7 25 -15 11 -16 17 -7 28 6 8 8 14
3 14 -5 0 -2 5 6 10 9 6 10 10 3 10 -8 0 -9 9 -3 30 10 35 3 40 -10 8 -7 -19
-8 -17 -6 13 2 20 6 41 10 48 4 6 1 11 -6 11 -10 0 -9 3 1 9 12 8 13 16 4 46
-11 33 -10 35 5 23 14 -11 13 -8 -2 17 -10 17 -15 27 -11 23 4 -4 13 -1 20 5
10 10 9 15 -7 25 -15 11 -16 17 -7 28 6 8 8 14 3 14 -5 0 -2 5 6 10 9 6 10 10
3 10 -8 0 -9 9 -3 30 10 35 4 40 -11 8 -9 -21 -9 -21 -4 5 l5 27 -1645 0
-1645 0 0 -5115z m5475 3285 c302 -35 566 -100 838 -206 820 -319 1485 -961
1830 -1769 317 -740 355 -1566 106 -2331 -302 -932 -1021 -1692 -1936 -2048
-274 -107 -531 -169 -848 -208 -136 -16 -562 -16 -700 1 -506 61 -962 216
-1360 464 -69 43 -144 94 -117 80 2 -1 10 4 17 10 10 10 9 15 -7 25 -15 11
-16 17 -7 28 6 8 8 14 3 14 -5 0 -2 5 6 10 9 6 10 10 3 10 -8 0 -9 9 -3 30 10
35 3 40 -10 7 -7 -18 -8 -16 -6 14 2 20 6 41 10 48 4 6 1 11 -6 11 -10 0 -9 3
1 9 12 8 13 16 4 46 -11 33 -10 35 5 23 14 -11 13 -8 -2 17 -10 17 -15 27 -11
23 4 -4 13 -1 20 5 10 10 9 15 -7 25 -15 11 -16 17 -7 28 6 8 8 14 3 14 -5 0
-2 5 6 10 9 6 10 10 3 10 -8 0 -9 9 -3 30 10 35 3 40 -10 8 -7 -19 -8 -17 -6
13 2 20 6 41 10 48 4 6 1 11 -6 11 -10 0 -9 3 1 9 12 8 13 16 4 46 -11 33 -10
35 5 23 14 -11 13 -8 -2 17 -10 17 -15 27 -11 23 4 -4 13 -1 20 5 10 10 9 15
-7 25 -15 11 -16 17 -7 28 6 8 8 14 3 14 -5 0 -2 5 6 10 9 6 10 10 3 10 -8 0
-9 9 -3 30 10 35 3 40 -10 8 -7 -19 -8 -17 -6 13 2 20 6 41 10 48 4 6 1 11 -6
11 -10 0 -9 3 1 9 12 8 13 16 4 46 -11 33 -10 35 5 23 14 -11 13 -8 -2 17 -10
17 -15 27 -11 23 4 -4 13 -1 20 5 10 10 9 15 -7 25 -15 11 -16 17 -7 28 6 8 8
14 3 14 -5 0 -2 5 6 10 9 6 10 10 3 10 -8 0 -9 9 -3 30 10 35 3 40 -10 8 -7
-19 -8 -17 -6 13 2 20 6 41 10 48 4 6 1 11 -6 11 -10 0 -9 3 1 9 12 8 13 16 4
46 -11 33 -10 35 5 23 14 -11 13 -8 -2 17 -10 17 -15 27 -11 23 4 -4 13 -1 20
5 10 10 9 15 -7 25 -15 11 -16 17 -7 28 6 8 8 14 3 14 -5 0 -2 5 6 10 9 6 10
10 3 10 -8 0 -9 9 -3 30 10 35 3 40 -10 8 -7 -19 -8 -17 -6 13 2 20 6 41 10
48 4 6 1 11 -6 11 -10 0 -9 3 1 9 12 8 13 16 4 46 -11 33 -10 35 5 23 14 -11
13 -8 -2 17 -10 17 -15 27 -11 23 4 -4 13 -1 20 5 10 10 9 15 -7 25 -15 11
-16 17 -7 28 6 8 8 14 3 14 -5 0 -2 5 6 10 9 6 10 10 3 10 -8 0 -9 9 -3 30 10
35 3 40 -10 8 -7 -19 -8 -17 -6 13 2 20 6 41 10 48 4 6 1 11 -6 11 -10 0 -9 3
1 9 12 8 13 16 4 46 -11 33 -10 35 5 23 14 -11 13 -8 -2 17 -10 17 -15 27 -11
23 4 -4 13 -1 20 5 10 10 9 15 -7 25 -15 11 -16 17 -7 28 6 8 8 14 3 14 -5 0
-2 5 6 10 9 6 10 10 3 10 -8 0 -9 9 -3 30 10 35 3 40 -10 8 -7 -19 -8 -17 -6
13 2 20 6 41 10 48 4 6 1 11 -6 11 -10 0 -9 3 1 9 12 8 13 16 4 46 -11 33 -10
35 5 23 14 -11 13 -8 -2 17 -10 17 -15 27 -11 23 4 -4 13 -1 20 5 10 10 9 15
-7 25 -15 11 -16 17 -7 28 6 8 8 14 3 14 -5 0 -2 5 6 10 9 6 10 10 3 10 -8 0
-9 9 -3 30 10 35 3 40 -10 8 -7 -19 -8 -17 -6 13 2 20 6 41 10 48 4 6 1 11 -6
11 -10 0 -9 3 1 9 12 8 13 16 4 46 -11 33 -10 35 5 23 14 -11 13 -8 -2 17 -10
17 -15 27 -11 23 4 -4 13 -1 20 5 10 10 9 15 -7 25 -15 11 -16 17 -7 28 6 8 8
14 3 14 -5 0 -2 5 6 10 9 6 10 10 3 10 -8 0 -9 9 -3 30 10 35 3 40 -10 8 -7
-19 -8 -17 -6 13 2 20 6 41 10 48 4 6 1 11 -6 11 -10 0 -9 3 1 9 12 8 13 16 4
46 -11 33 -10 35 5 23 14 -11 13 -8 -2 17 -10 17 -15 27 -11 23 4 -4 13 -1 20
5 10 10 9 15 -7 25 -15 11 -16 17 -7 28 6 8 8 14 3 14 -5 0 -2 5 6 10 9 6 10
10 3 10 -8 0 -9 9 -3 30 10 35 3 40 -10 8 -7 -19 -8 -17 -6 13 2 20 6 41 10
48 4 6 1 11 -6 11 -10 0 -9 3 1 9 12 8 13 16 4 46 -11 33 -10 35 5 23 14 -11
13 -8 -2 17 -10 17 -15 27 -11 23 4 -4 13 -1 20 5 10 10 9 15 -7 25 -15 11
-16 17 -7 28 6 8 8 14 3 14 -5 0 -2 5 6 10 9 6 10 10 3 10 -8 0 -9 9 -3 30 10
35 3 40 -10 8 -7 -19 -8 -17 -6 13 2 20 6 41 10 48 4 6 1 11 -6 11 -10 0 -9 3
1 9 12 8 13 16 4 46 -11 33 -10 35 5 23 14 -11 13 -8 -2 17 -10 17 -15 27 -11
23 4 -4 13 -1 20 5 10 10 9 15 -7 25 -15 11 -16 17 -7 28 6 8 8 14 3 14 -5 0
-2 5 6 10 9 6 10 10 3 10 -8 0 -9 9 -3 30 10 35 3 40 -10 8 -7 -19 -8 -17 -6
13 2 20 6 41 10 48 4 6 1 11 -6 11 -10 0 -9 3 1 9 12 8 13 16 4 46 -11 33 -10
35 5 23 14 -11 13 -8 -2 17 -10 17 -15 27 -11 23 4 -4 13 -1 20 5 10 10 9 15
-7 25 -15 11 -16 17 -7 28 6 8 8 14 3 14 -5 0 -2 5 6 10 9 6 10 10 3 10 -8 0
-9 9 -3 30 10 35 3 40 -10 8 -7 -19 -8 -17 -6 13 2 20 6 41 10 48 4 6 1 11 -6
11 -10 0 -9 3 1 9 12 8 13 16 4 46 -11 33 -10 35 5 23 14 -11 13 -8 -2 17 -10
17 -15 27 -11 23 4 -4 13 -1 20 5 10 10 9 15 -7 25 -15 11 -16 17 -7 28 6 8 8
14 3 14 -5 0 -2 5 6 10 9 6 10 10 3 10 -8 0 -9 9 -3 30 10 35 3 40 -10 8 -7
-19 -8 -17 -6 13 2 20 6 41 10 48 4 6 1 11 -6 11 -10 0 -9 3 1 9 12 8 13 16 4
46 -11 33 -10 35 5 23 14 -11 13 -8 -2 17 -10 17 -15 27 -11 23 4 -4 13 -1 20
5 10 10 9 15 -7 25 -15 11 -16 17 -7 28 6 8 8 14 3 14 -5 0 -2 5 6 10 9 6 10
10 3 10 -8 0 -9 9 -3 30 10 35 3 40 -10 8 -7 -19 -8 -17 -6 13 2 20 6 41 10
48 4 6 1 11 -6 11 -10 0 -9 3 1 9 12 8 13 16 4 46 -11 33 -10 35 5 23 14 -11
13 -8 -2 17 -10 17 -15 27 -11 23 4 -4 13 -1 20 5 10 10 9 15 -7 25 -15 11
-16 17 -7 28 6 8 8 14 3 14 -5 0 -2 5 6 10 9 6 10 10 3 10 -8 0 -9 9 -3 30 10
35 3 40 -10 8 -7 -19 -8 -17 -6 13 2 20 6 41 10 48 4 6 1 11 -6 11 -10 0 -9 3
1 9 12 8 13 16 4 46 -11 33 -10 35 5 23 14 -11 13 -8 -2 17 -10 17 -15 27 -11
23 4 -4 13 -1 20 5 10 10 9 15 -7 25 -15 11 -16 17 -7 28 6 8 8 14 3 14 -5 0
-2 5 6 10 9 6 10 10 3 10 -8 0 -9 9 -3 30 10 35 3 40 -10 8 -7 -19 -8 -17 -6
13 2 20 6 41 10 48 4 6 1 11 -6 11 -10 0 -9 3 1 9 12 8 13 16 4 46 -11 33 -10
35 5 23 14 -11 13 -8 -2 17 -10 17 -15 27 -11 23 4 -4 13 -2 20 5 10 9 10 14
-2 22 -11 8 9 25 89 74 342 214 727 362 1128 435 117 21 183 29 395 50 70 7
467 -3 560 -14z"/>
<path d="M4845 7410 c-380 -43 -707 -193 -922 -424 -209 -224 -346 -545 -347
-816 0 -86 2 -101 30 -160 87 -181 290 -258 467 -177 119 54 192 164 208 311
23 207 95 330 258 437 132 87 310 129 554 129 460 0 756 -143 897 -435 51
-106 69 -178 77 -307 13 -233 -54 -449 -176 -559 -97 -89 -177 -115 -408 -129
-237 -14 -353 -43 -469 -119 -119 -76 -200 -197 -230 -341 -12 -58 -15 -126
-12 -310 l3 -235 34 -63 c41 -75 94 -125 170 -161 47 -22 70 -26 141 -26 71 0
94 4 142 27 73 34 142 103 176 176 24 51 28 72 32 202 l5 145 115 6 c306 17
579 126 790 316 261 234 416 664 397 1098 -13 305 -110 582 -286 816 -240 320
-586 512 -1051 584 -123 19 -478 28 -595 15z"/>
<path d="M4959 3712 c-150 -50 -271 -196 -300 -360 -48 -270 223 -536 500
-491 282 45 452 358 333 613 -41 87 -129 174 -221 218 -57 28 -78 32 -161 35
-72 2 -109 -1 -151 -15z"/>
</g>
</svg>
